<svg width="20" height="20" viewBox="0 0 20 20" fill="none" xmlns="http://www.w3.org/2000/svg">
<g clip-path="url(#clip0_293_2889)">
<path d="M0.244518 19.7558C0.570352 20.0817 1.09702 20.0817 1.42285 19.7558L2.32035 18.8583L3.75868 17.42L6.08035 19.7417C6.28118 19.9442 6.57452 20.0275 6.85035 19.9667C7.12785 19.905 7.35535 19.7058 7.45285 19.4375L10.172 11.9633C10.3954 11.3483 10.247 10.6792 9.78368 10.2158C9.32202 9.75333 8.65368 9.60417 8.03702 9.82917L0.563685 12.5475C0.296185 12.6442 0.0961849 12.8725 0.0345182 13.15C-0.0263151 13.4283 0.0570182 13.7192 0.259518 13.92L2.58118 16.2417L1.14285 17.68L0.245352 18.5775C-0.0804818 18.9033 -0.0813151 19.43 0.244518 19.7558ZM12.4937 12.5033C12.317 12.0775 12.5187 11.59 12.9437 11.4133C16.2745 10.0467 15.2687 4.99083 11.667 5C10.312 5 9.10202 5.80917 8.58452 7.06167C8.40868 7.48833 7.92035 7.68917 7.49618 7.51333C7.07035 7.3375 6.86869 6.85083 7.04452 6.425C7.82035 4.54667 9.63452 3.33333 11.667 3.33333C17.0929 3.36167 18.5837 10.8583 13.5829 12.9533C13.4787 12.9967 13.3704 13.0167 13.2637 13.0167C12.937 13.0167 12.627 12.8242 12.4937 12.5033ZM10.8337 15.8333C10.8337 15.3725 11.207 15 11.667 15C20.4904 14.6867 20.4887 1.97833 11.667 1.66667C7.99119 1.66667 5.00035 4.6575 5.00035 8.33333C5.00035 8.79417 4.62785 9.16667 4.16702 9.16667C3.70618 9.16667 3.33368 8.79417 3.33368 8.33333C3.33368 3.73833 7.07202 0 11.667 0C22.707 0.419167 22.7045 16.2492 11.667 16.6667C11.207 16.6667 10.8337 16.2942 10.8337 15.8333Z" fill="#08120F"/>
</g>
<defs>
<clipPath id="clip0_293_2889">
<rect width="20" height="20" fill="white"/>
</clipPath>
</defs>
</svg>
