<svg width="20" height="20" viewBox="0 0 20 20" fill="none" xmlns="http://www.w3.org/2000/svg">
<path d="M3.33336 9.16667H16.6667C21.0634 9.05167 21.06 2.61417 16.6667 2.5H3.33336C-1.06331 2.615 -1.05997 9.0525 3.33336 9.16667ZM18.3334 5.83333C18.3334 6.7525 17.5859 7.5 16.6667 7.5H13.3334V4.16667H16.6667C17.5859 4.16667 18.3334 4.91417 18.3334 5.83333ZM16.6667 10.8333H3.33336C-1.06331 10.9483 -1.05997 17.3858 3.33336 17.5H16.6667C21.0634 17.385 21.06 10.9475 16.6667 10.8333ZM16.6667 15.8333H8.33336V12.5H16.6667C18.8575 12.54 18.8559 15.7942 16.6667 15.8333Z" fill="white"/>
</svg>
