<svg width="24" height="24" viewBox="0 0 24 24" fill="none" xmlns="http://www.w3.org/2000/svg">
<g clip-path="url(#clip0_293_3071)">
<path d="M0 18.5C0 16.567 1.567 15 3.5 15C5.433 15 7 16.567 7 18.5C7 20.433 5.433 22 3.5 22C1.567 22 0 20.433 0 18.5ZM20.5 22C22.433 22 24 20.433 24 18.5C24 16.567 22.433 15 20.5 15C18.567 15 17 16.567 17 18.5C17 20.433 18.567 22 20.5 22ZM12 22C13.933 22 15.5 20.433 15.5 18.5C15.5 16.567 13.933 15 12 15C10.067 15 8.5 16.567 8.5 18.5C8.5 20.433 10.067 22 12 22ZM16.25 15C18.183 15 19.75 13.433 19.75 11.5C19.75 9.567 18.183 8 16.25 8C14.317 8 12.75 9.567 12.75 11.5C12.75 13.433 14.317 15 16.25 15ZM7.75 15C9.683 15 11.25 13.433 11.25 11.5C11.25 9.567 9.683 8 7.75 8C5.817 8 4.25 9.567 4.25 11.5C4.25 13.433 5.817 15 7.75 15ZM12 8C13.933 8 15.5 6.433 15.5 4.5C15.5 2.567 13.933 1 12 1C10.067 1 8.5 2.567 8.5 4.5C8.5 6.433 10.067 8 12 8Z" fill="#50B69A"/>
</g>
<defs>
<clipPath id="clip0_293_3071">
<rect width="24" height="24" fill="white"/>
</clipPath>
</defs>
</svg>
