<svg width="20" height="20" viewBox="0 0 20 20" fill="none" xmlns="http://www.w3.org/2000/svg">
<g clip-path="url(#clip0_293_2879)">
<path d="M10.8337 15L10.8653 19.4567C10.8653 19.9758 10.2062 20.1983 9.89116 19.7858L8.78199 18.3333L7.67283 19.7858C7.35783 20.1983 6.69866 19.9758 6.69866 19.4567L6.66699 15H10.8337ZM4.16699 13.3333H5.00033V0.0833333C3.06033 0.479167 1.66699 2.18667 1.66699 4.16667V14.1875C2.24949 13.7483 2.93783 13.4708 3.66283 13.3842C3.82866 13.35 3.99783 13.3333 4.16699 13.3333ZM5.00033 15H4.16699C2.78616 15 1.66699 16.1192 1.66699 17.5C1.66699 18.8808 2.78616 20 4.16699 20H5.00033V15ZM14.167 0H6.66699V13.3333H18.3337V4.16667C18.3337 1.86583 16.4678 0 14.167 0ZM12.5003 20H14.167C16.4678 20 18.3337 18.1342 18.3337 15.8333V15H12.5003V20Z" fill="#08120F"/>
</g>
<defs>
<clipPath id="clip0_293_2879">
<rect width="20" height="20" fill="white"/>
</clipPath>
</defs>
</svg>
