<svg width="24" height="24" viewBox="0 0 24 24" fill="none" xmlns="http://www.w3.org/2000/svg">
<g clip-path="url(#clip0_293_3025)">
<path d="M11 13H3C1.343 13 0 14.343 0 16V21C0 22.657 1.343 24 3 24H11V13ZM3.5 17C3.5 16.448 3.948 16 4.5 16H6.5C7.052 16 7.5 16.448 7.5 17C7.5 17.552 7.052 18 6.5 18H4.5C3.948 18 3.5 17.552 3.5 17ZM21 13H13V24H21C22.657 24 24 22.657 24 21V16C24 14.343 22.657 13 21 13ZM19.5 18H17.5C16.948 18 16.5 17.552 16.5 17C16.5 16.448 16.948 16 17.5 16H19.5C20.052 16 20.5 16.448 20.5 17C20.5 17.552 20.052 18 19.5 18ZM15 0H9C7.343 0 6 1.343 6 3V11H18V3C18 1.343 16.657 0 15 0ZM13 5H11C10.448 5 10 4.552 10 4C10 3.448 10.448 3 11 3H13C13.552 3 14 3.448 14 4C14 4.552 13.552 5 13 5Z" fill="#50B69A"/>
</g>
<defs>
<clipPath id="clip0_293_3025">
<rect width="24" height="24" fill="white"/>
</clipPath>
</defs>
</svg>
