<svg width="24" height="24" viewBox="0 0 24 24" fill="none" xmlns="http://www.w3.org/2000/svg">
<g clip-path="url(#clip0_293_3067)">
<path d="M12.608 24C11.811 24 11.085 23.565 10.708 22.862L9.07997 19.819L5.26297 21.261C4.50597 21.522 3.72097 21.335 3.18197 20.785C2.64397 20.235 2.47397 19.446 2.73897 18.723C2.75297 18.685 2.76897 18.649 2.78697 18.613L4.55797 15.139L1.13897 13.728C0.442973 13.422 0.0159733 12.781 -2.67207e-05 12.046C-0.0160267 11.311 0.384973 10.651 1.04397 10.326L4.53597 8.715L1.34097 3.935C0.877973 3.156 0.980973 2.249 1.56997 1.634C2.15797 1.017 3.05997 0.872 3.81097 1.273L9.07397 4.023L10.609 1.14C10.984 0.437 11.711 0 12.507 0C13.303 0 14.029 0.436 14.404 1.138L16.037 4.198L20.631 2.231C21.285 1.953 22.02 2.109 22.502 2.627C22.985 3.144 23.091 3.886 22.772 4.517L20.429 8.718L22.84 10.005C23.541 10.379 23.977 11.105 23.977 11.9C23.977 12.695 23.542 13.422 22.841 13.797L20.596 14.997L23.761 20.187C23.776 20.211 23.789 20.236 23.802 20.261C24.164 20.987 24.029 21.828 23.455 22.403C22.882 22.979 22.042 23.117 21.314 22.757L16.008 19.932L14.528 22.827C14.161 23.543 13.433 23.993 12.629 24H12.609H12.608Z" fill="#50B69A"/>
</g>
<defs>
<clipPath id="clip0_293_3067">
<rect width="24" height="24" fill="white"/>
</clipPath>
</defs>
</svg>
