<svg width="24" height="24" viewBox="0 0 24 24" fill="none" xmlns="http://www.w3.org/2000/svg">
<g clip-path="url(#clip0_293_3074)">
<path d="M23 2C22.7348 2 22.4804 2.10536 22.2929 2.29289C22.1054 2.48043 22 2.73478 22 3V4H20V3C20 2.73478 19.8946 2.48043 19.7071 2.29289C19.5196 2.10536 19.2652 2 19 2C18.7348 2 18.4804 2.10536 18.2929 2.29289C18.1054 2.48043 18 2.73478 18 3V5.5C17.9999 6.07633 18.1989 6.63499 18.5633 7.08145C18.9278 7.52791 19.4353 7.83473 20 7.95V17C20 17.5304 19.7893 18.0391 19.4142 18.4142C19.0391 18.7893 18.5304 19 18 19H16V11H14C13.7348 11 13.4804 10.8946 13.2929 10.7071C13.1054 10.5196 13 10.2652 13 10C13 9.73478 13.1054 9.48043 13.2929 9.29289C13.4804 9.10536 13.7348 9 14 9H16V5C15.9984 3.67441 15.4711 2.40356 14.5338 1.46622C13.5964 0.528882 12.3256 0.00158786 11 0L5 0C3.67441 0.00158786 2.40356 0.528882 1.46622 1.46622C0.528882 2.40356 0.00158786 3.67441 0 5L0 9H2C2.26522 9 2.51957 9.10536 2.70711 9.29289C2.89464 9.48043 3 9.73478 3 10C3 10.2652 2.89464 10.5196 2.70711 10.7071C2.51957 10.8946 2.26522 11 2 11H0V19C0.00158786 20.3256 0.528882 21.5964 1.46622 22.5338C2.40356 23.4711 3.67441 23.9984 5 24H11C11.9726 23.9989 12.9238 23.7146 13.7374 23.1818C14.5511 22.6491 15.192 21.891 15.582 21H18C19.0609 21 20.0783 20.5786 20.8284 19.8284C21.5786 19.0783 22 18.0609 22 17V7.95C22.5647 7.83473 23.0722 7.52791 23.4367 7.08145C23.8011 6.63499 24.0001 6.07633 24 5.5V3C24 2.73478 23.8946 2.48043 23.7071 2.29289C23.5196 2.10536 23.2652 2 23 2ZM10.732 11.49L8.85 14.527C8.71023 14.7524 8.48663 14.9131 8.2284 14.9737C7.97016 15.0343 7.69843 14.9898 7.473 14.85C7.24757 14.7102 7.08689 14.4866 7.02631 14.2284C6.96574 13.9702 7.01023 13.6984 7.15 13.473L8.683 11H6.615C6.36287 11.0001 6.11423 10.9411 5.889 10.8278C5.66377 10.7145 5.46822 10.55 5.31802 10.3475C5.16782 10.145 5.06715 9.91014 5.02408 9.66172C4.98101 9.4133 4.99674 9.15825 5.07 8.917C5.09323 8.83506 5.12684 8.75642 5.17 8.683L7.148 5.476C7.21294 5.35665 7.30153 5.25179 7.40835 5.16781C7.51517 5.08384 7.63798 5.02251 7.76929 4.98758C7.9006 4.95265 8.03765 4.94484 8.17207 4.96464C8.3065 4.98444 8.43548 5.03142 8.55114 5.10272C8.66681 5.17403 8.76673 5.26815 8.8448 5.37936C8.92288 5.49056 8.97747 5.61651 9.00525 5.74952C9.03303 5.88252 9.03342 6.01979 9.00638 6.15295C8.97934 6.28611 8.92545 6.41236 8.848 6.524L7.328 9H9.4C9.69039 8.99884 9.97563 9.07674 10.2251 9.22534C10.4746 9.37393 10.679 9.58763 10.8163 9.84352C10.9536 10.0994 11.0186 10.3878 11.0045 10.6779C10.9903 10.9679 10.8975 11.2487 10.736 11.49H10.732Z" fill="#50B69A"/>
</g>
<defs>
<clipPath id="clip0_293_3074">
<rect width="24" height="24" fill="white"/>
</clipPath>
</defs>
</svg>
