<svg width="24" height="18" viewBox="0 0 24 18" fill="none" xmlns="http://www.w3.org/2000/svg">
<g clip-path="url(#clip0_293_3084)">
<path d="M19 18H5C2.243 18 0 15.757 0 13V5C0 2.243 2.243 0 5 0H11V-2H7C6.448 -2 6 -2.448 6 -3C6 -3.552 6.448 -4 7 -4H17C17.552 -4 18 -3.552 18 -3C18 -2.448 17.552 -2 17 -2H13V0H19C21.757 0 24 2.243 24 5V13C24 15.757 21.757 18 19 18ZM20 8.022C20 7.47 19.552 7.022 19 7.022C18.448 7.022 18 7.47 18 8.022V9.585L14.496 6.081C13.615 5.199 12.078 5.199 11.197 6.081L9.335 7.943C9.205 8.073 8.994 8.073 8.864 7.943L5.71 4.789C5.515 4.594 5.259 4.496 5.003 4.496C4.747 4.496 4.491 4.594 4.296 4.789C3.905 5.18 3.905 5.812 4.296 6.203L7.45 9.357C8.359 10.267 9.84 10.267 10.749 9.357L12.611 7.495C12.781 7.325 12.912 7.325 13.082 7.495L16.586 10.999H15C14.448 10.999 14 11.447 14 11.999C14 12.551 14.448 12.999 15 12.999H18.5C19.327 12.999 20 12.326 20 11.499V8.021V8.022Z" fill="#50B69A"/>
</g>
<defs>
<clipPath id="clip0_293_3084">
<rect width="24" height="18" fill="white" transform="matrix(1 0 0 -1 0 18)"/>
</clipPath>
</defs>
</svg>
