<svg width="24" height="18" viewBox="0 0 24 18" fill="none" xmlns="http://www.w3.org/2000/svg">
<g clip-path="url(#clip0_293_3080)">
<path d="M19 0H5C2.243 0 0 2.243 0 5V13C0 15.757 2.243 18 5 18H11V20H7C6.448 20 6 20.448 6 21C6 21.552 6.448 22 7 22H17C17.552 22 18 21.552 18 21C18 20.448 17.552 20 17 20H13V18H19C21.757 18 24 15.757 24 13V5C24 2.243 21.757 0 19 0ZM20 9.978C20 10.53 19.552 10.978 19 10.978C18.448 10.978 18 10.53 18 9.978V8.415L14.496 11.919C13.615 12.801 12.078 12.801 11.197 11.919L9.335 10.057C9.205 9.927 8.994 9.927 8.864 10.057L5.71 13.211C5.515 13.406 5.259 13.504 5.003 13.504C4.747 13.504 4.491 13.406 4.296 13.211C3.905 12.82 3.905 12.188 4.296 11.797L7.45 8.643C8.359 7.733 9.84 7.733 10.749 8.643L12.611 10.505C12.781 10.675 12.912 10.675 13.082 10.505L16.586 7.001H15C14.448 7.001 14 6.553 14 6.001C14 5.449 14.448 5.001 15 5.001H18.5C19.327 5.001 20 5.674 20 6.501V9.979V9.978Z" fill="#50B69A"/>
</g>
<defs>
<clipPath id="clip0_293_3080">
<rect width="24" height="18" fill="white"/>
</clipPath>
</defs>
</svg>
