<svg width="20" height="20" viewBox="0 0 20 20" fill="none" xmlns="http://www.w3.org/2000/svg">
<path d="M6.66786 11.1099C5.86536 10.2841 5.3687 9.15909 5.3687 7.91659C5.3687 5.38492 7.42036 3.33326 9.95203 3.33326C12.4837 3.33326 14.5354 5.38492 14.5354 7.91659C14.5354 8.35076 14.4712 8.76909 14.3587 9.16659H12.397C11.7987 8.46992 10.9229 8.01909 9.93036 8.01909C8.18286 8.01909 6.76953 9.38826 6.66786 11.1099ZM3.79453 6.83742C4.02286 5.50992 4.67203 4.29992 5.6787 3.35576C6.95286 2.16159 8.6212 1.57159 10.3704 1.67992C13.6645 1.89326 16.2404 4.77909 16.202 8.23409C16.1862 9.68076 14.9745 10.8324 13.5287 10.8324H11.5237C11.3204 10.1416 10.6887 9.63326 9.93203 9.63326C9.0112 9.63326 8.26536 10.3791 8.26536 11.2999C8.26536 12.2208 9.0112 12.9666 9.93203 12.9666C10.3804 12.9666 10.7862 12.7874 11.0854 12.4991H13.5287C15.8779 12.4991 17.8354 10.6283 17.8687 8.27992C17.9304 3.92909 14.662 0.287425 10.4779 0.0174247C8.25786 -0.126742 6.15203 0.627425 4.53953 2.14076C3.29036 3.31159 2.45953 4.86159 2.16036 6.52909C2.06953 7.03576 2.47036 7.50076 2.98453 7.50076C3.37786 7.50076 3.7287 7.22659 3.79453 6.83826V6.83742ZM13.8879 15.3549L12.3312 17.5608C12.0354 18.0041 11.3845 18.0041 11.0887 17.5608L10.0437 15.9924L8.9987 17.5608C8.70286 18.0041 8.05203 18.0041 7.7562 17.5608L6.2087 15.2391C4.86036 16.0749 3.81453 17.3458 3.32453 18.9183C3.24536 19.1716 3.2912 19.4474 3.4487 19.6608C3.6062 19.8741 3.85536 19.9999 4.12036 19.9999H15.787C16.052 19.9999 16.3012 19.8741 16.4587 19.6608C16.6162 19.4474 16.662 19.1716 16.5829 18.9183C16.1154 17.4191 15.1445 16.1916 13.8879 15.3549Z" fill="#08120F"/>
</svg>
