<svg width="24" height="24" viewBox="0 0 24 24" fill="none" xmlns="http://www.w3.org/2000/svg">
<path d="M4.65937 11.858C5.82537 11.325 6.27237 10.962 7.09137 9.997C7.62637 9.365 7.54837 8.418 6.91637 7.883C6.66537 7.669 6.36437 7.554 6.05937 7.531C6.90037 5.493 8.75037 4.677 12.0774 4.677C16.2324 4.677 17.9734 5.856 18.5024 9.029C18.6384 9.846 19.4184 10.4 20.2284 10.262C21.0454 10.126 21.5974 9.353 21.4614 8.536C20.4384 2.388 15.6154 1.677 12.0774 1.677C10.1154 1.677 4.68437 1.677 3.00237 7.249C2.62937 7.117 2.20537 7.131 1.82237 7.324C1.08437 7.698 0.787365 8.6 1.16237 9.34C1.73037 10.463 2.09137 10.902 3.09537 11.685C3.36437 11.895 3.95437 12.181 4.65937 11.859V11.858Z" fill="#2D4C31"/>
<path d="M22.8382 14.66C22.2702 13.537 21.9092 13.098 20.9052 12.315C20.4592 11.966 19.8532 11.899 19.3412 12.141C18.1822 12.689 17.7282 13.037 16.9092 14.002C16.3742 14.634 16.4522 15.581 17.0842 16.116C17.3352 16.329 17.6362 16.445 17.9412 16.467C17.1002 18.506 15.2502 19.322 11.9222 19.322C7.76717 19.322 6.02617 18.143 5.49717 14.97C5.36017 14.153 4.58217 13.594 3.77117 13.737C2.95417 13.873 2.40217 14.646 2.53817 15.463C3.56017 21.611 8.38417 22.322 11.9222 22.322C13.8852 22.322 19.3152 22.322 20.9972 16.75C21.4542 16.944 21.9592 16.785 22.1772 16.675C22.9152 16.301 23.2122 15.399 22.8372 14.659L22.8382 14.66Z" fill="#2D4C31"/>
</svg>
