<svg width="24" height="24" viewBox="0 0 24 24" fill="none" xmlns="http://www.w3.org/2000/svg">
<path d="M17 12C13.691 12 11 9.309 11 6C11 2.691 13.691 0 17 0C20.309 0 23 2.691 23 6C23 9.309 20.309 12 17 12ZM1.722 7.03C1.702 6.965 1.682 6.9 1.663 6.834C1.198 8.779 0.533 11.6 0 13.87C1.327 12.707 3.054 12.012 4.895 12C3.175 10.94 1.964 9.13 1.721 7.029L1.722 7.03ZM7.5 4.5C8.538 3.981 9 3.5 9.931 2.264C10.254 1.656 10.656 1.099 11.118 0.596C10.291 0.221 9.383 0 8.426 0C5.571 0 3.079 1.829 2.224 4.55C2.207 4.604 2.166 4.761 2.107 5H4.195C5.445 5 6.645 4.927 7.5 4.5ZM9.002 5.953C8.813 6.067 8.615 6.179 8.394 6.289C7.242 6.865 5.872 6.978 4.536 6.993C4.501 6.993 4.016 7.001 3.736 7.001C4.097 9.265 6.063 11 8.426 11C9.142 11 9.818 10.834 10.427 10.549C9.529 9.256 9 7.69 9 6C9 5.984 9.002 5.969 9.002 5.953ZM20.727 14.201L17.017 18.501L13.249 14.206C11.339 14.754 10 16.468 10 18.501V24.001H24V18.501C24 16.487 22.628 14.744 20.727 14.201ZM4.116 14.038L3.849 14.064C1.655 14.396 0.001 16.303 0.001 18.5V24H8.001V18.481L4.116 14.038Z" fill="#50B69A"/>
</svg>
