<svg width="24" height="24" viewBox="0 0 24 24" fill="none" xmlns="http://www.w3.org/2000/svg">
<path d="M12.0005 15.9985C14.2088 15.9985 15.999 14.2083 15.999 12C15.999 9.79169 14.2088 8.0015 12.0005 8.0015C9.79214 8.0015 8.00195 9.79169 8.00195 12C8.00195 14.2083 9.79214 15.9985 12.0005 15.9985Z" fill="#2D4C31"/>
<path d="M23.2668 9.41997C21.7164 6.89491 18.1897 2.65846 12 2.65846C5.81027 2.65846 2.28358 6.89491 0.733158 9.41997C-0.244386 11.0011 -0.244386 12.9989 0.733158 14.5801C2.28358 17.1051 5.81027 21.3416 12 21.3416C18.1897 21.3416 21.7164 17.1051 23.2668 14.5801C24.2443 12.9989 24.2443 11.0011 23.2668 9.41997ZM12 17.9978C8.68752 17.9978 6.0022 15.3125 6.0022 12C6.0022 8.68754 8.68752 6.00222 12 6.00222C15.3124 6.00222 17.9978 8.68754 17.9978 12C17.9944 15.3111 15.3111 17.9944 12 17.9978Z" fill="#2D4C31"/>
</svg>
