<svg width="24" height="24" viewBox="0 0 24 24" fill="none" xmlns="http://www.w3.org/2000/svg">
<g clip-path="url(#clip0_293_3097)">
<path d="M12 14H13.876C13.562 13.201 13.447 12.234 13.885 11.471C14.405 10.564 15.374 10 16.416 10H21.234C21.102 9.881 20.961 9.769 20.801 9.682L12.349 5.072C12.238 5.012 12.117 4.98 11.999 4.935V4.198L14.503 2.51C14.93 2.222 14.866 1.575 14.39 1.377L11.262 0.0709998C10.662 -0.179 10 0.262 10 0.912V4.934C9.883 4.979 9.761 5.011 9.65 5.071L1.199 9.682C0.46 10.085 0 10.859 0 11.701C0 12.867 0.875 13.822 2 13.97V22H1C0.448 22 0 22.447 0 23C0 23.553 0.448 24 1 24H10C10.552 24 11 23.553 11 23C11 22.447 10.552 22 10 22H8V14H10V15C10 15.553 10.448 16 11 16C11.552 16 12 15.553 12 15V14ZM6 22H4V14H6V22ZM24 21.014C24 22.663 22.657 24 21 24H15C13.343 24 12 22.663 12 21.014C12 18.208 14.174 15.406 16.67 14.627C16.288 14.255 15.899 13.813 15.618 13.333C15.272 12.743 15.733 12 16.417 12H19.584C20.268 12 20.728 12.743 20.383 13.333C20.102 13.813 19.713 14.255 19.331 14.627C21.826 15.406 24 18.208 24 21.014Z" fill="#50B69A"/>
</g>
<defs>
<clipPath id="clip0_293_3097">
<rect width="24" height="24" fill="white"/>
</clipPath>
</defs>
</svg>
