<svg width="24" height="24" viewBox="0 0 24 24" fill="none" xmlns="http://www.w3.org/2000/svg">
<path d="M19.9981 23C19.9981 23.552 19.5511 24 18.9981 24H4.99815C4.44515 24 3.99815 23.552 3.99815 23C3.99815 22.448 4.44515 22 4.99815 22C5.55115 22 5.99815 21.551 5.99815 21C5.99815 20.719 5.69715 20.273 5.35915 20H18.6451C18.2801 20.302 17.9981 20.73 17.9981 21C17.9981 21.551 18.4461 22 18.9981 22C19.5501 22 19.9981 22.448 19.9981 23ZM3.03615 18H20.9701C22.4321 16.448 23.4741 14.616 23.9151 12.718C24.1281 11.803 23.9171 10.859 23.3371 10.129C22.7681 9.412 21.9151 9.001 20.9981 9.001H2.99815C2.08115 9.001 1.22815 9.412 0.659145 10.129C0.0791454 10.859 -0.131855 11.803 0.0811454 12.719C0.520145 14.61 1.55715 16.436 3.03615 18ZM23.2661 4.268L19.9591 7H14.5531L19.7301 0.732C20.7061 -0.244 22.2891 -0.244 23.2661 0.732C24.2431 1.708 24.2421 3.291 23.2661 4.268Z" fill="#50B69A"/>
</svg>
