<svg width="24" height="24" viewBox="0 0 24 24" fill="none" xmlns="http://www.w3.org/2000/svg">
<path d="M23 16.479C23 14.317 22.272 12.765 20.829 11.832C20.649 4.98001 17.831 1.78101 12 1.78101C6.169 1.78101 3.35 4.98001 3.171 11.832C1.728 12.765 1 14.317 1 16.479C1 20.258 3.223 22.175 7.606 22.175C8.251 22.175 8.824 21.763 9.028 21.152C10.037 18.138 10.037 14.82 9.028 11.806C8.823 11.195 8.251 10.783 7.606 10.783C7.118 10.783 6.657 10.807 6.222 10.854C6.653 5.28301 9.297 4.78101 12 4.78101C14.703 4.78101 17.347 5.28301 17.778 10.854C17.344 10.807 16.882 10.783 16.394 10.783C15.749 10.783 15.176 11.195 14.972 11.806C14.175 14.186 14.008 16.758 14.471 19.22C13.719 19.217 12.994 19.188 12.302 19.133C11.473 19.072 10.753 19.683 10.688 20.509C10.622 21.335 11.238 22.058 12.064 22.123C12.876 22.187 13.727 22.221 14.607 22.221C15.202 22.221 15.81 22.206 16.429 22.176C20.79 22.166 23.001 20.25 23.001 16.48L23 16.479Z" fill="#50B69A"/>
</svg>
