<svg width="24" height="24" viewBox="0 0 24 24" fill="none" xmlns="http://www.w3.org/2000/svg">
<g clip-path="url(#clip0_293_3076)">
<path d="M20.5001 24C20.2671 24.0001 20.0373 23.9458 19.8289 23.8416C19.6206 23.7374 19.4393 23.5861 19.2996 23.3997C19.1598 23.2133 19.0654 22.9969 19.0239 22.7676C18.9823 22.5384 18.9947 22.3026 19.0601 22.079C19.1791 21.669 19.3131 21.287 19.4461 20.911C20.6671 18.443 19.6031 14.98 18.2541 13.263C16.975 11.4742 16.2178 9.36536 16.067 7.17148C15.9162 4.97761 16.3777 2.78496 17.4001 0.838008C17.5757 0.479965 17.8863 0.206334 18.2636 0.0773088C18.6409 -0.0517163 19.0541 -0.0255657 19.4121 0.150008C19.7701 0.325581 20.0438 0.636195 20.1728 1.01352C20.3018 1.39084 20.2757 1.80397 20.1001 2.16201C19.308 3.63489 18.9486 5.30177 19.0634 6.9702C19.1783 8.63862 19.7626 10.2405 20.7491 11.591C22.5151 13.753 23.8631 18.712 22.2781 21.91C22.1641 22.235 22.0471 22.565 21.9421 22.921C21.8509 23.2327 21.6611 23.5064 21.4011 23.701C21.141 23.8956 20.8249 24.0005 20.5001 24ZM13.5001 24C13.2671 24.0001 13.0373 23.9458 12.8289 23.8416C12.6206 23.7374 12.4393 23.5861 12.2996 23.3997C12.1598 23.2133 12.0654 22.9969 12.0239 22.7676C11.9823 22.5384 11.9947 22.3026 12.0601 22.079C12.1791 21.669 12.3131 21.287 12.4461 20.911C13.6671 18.443 12.6031 14.98 11.2541 13.263C9.97497 11.4742 9.2178 9.36536 9.06701 7.17148C8.91622 4.97761 9.37773 2.78496 10.4001 0.838008C10.5757 0.479965 10.8863 0.206334 11.2636 0.0773087C11.6409 -0.0517163 12.0541 -0.0255657 12.4121 0.150008C12.7701 0.325581 13.0438 0.636195 13.1728 1.01352C13.3018 1.39084 13.2757 1.80397 13.1001 2.16201C12.308 3.63489 11.9486 5.30177 12.0634 6.9702C12.1783 8.63862 12.7626 10.2405 13.7491 11.591C15.5151 13.753 16.8631 18.712 15.2781 21.91C15.1641 22.235 15.0471 22.565 14.9421 22.921C14.8509 23.2327 14.6611 23.5064 14.4011 23.701C14.141 23.8956 13.8249 24.0005 13.5001 24ZM6.50009 24C6.26711 24.0001 6.03733 23.9458 5.82894 23.8416C5.62056 23.7374 5.43932 23.5861 5.29958 23.3997C5.15983 23.2133 5.06544 22.9969 5.02387 22.7676C4.9823 22.5384 4.9947 22.3026 5.06009 22.079C5.17909 21.669 5.31309 21.287 5.44609 20.911C6.66709 18.443 5.60309 14.98 4.25409 13.263C2.97497 11.4742 2.2178 9.36536 2.06701 7.17148C1.91622 4.97761 2.37773 2.78496 3.40009 0.838008C3.57567 0.479965 3.88628 0.206334 4.2636 0.0773088C4.64093 -0.0517163 5.05405 -0.0255657 5.41209 0.150008C5.77014 0.325581 6.04377 0.636195 6.17279 1.01352C6.30182 1.39084 6.27567 1.80397 6.10009 2.16201C5.30797 3.63489 4.94859 5.30177 5.06342 6.9702C5.17826 8.63862 5.76264 10.2405 6.74909 11.591C8.51209 13.753 9.86009 18.712 8.27509 21.91C8.16109 22.235 8.04409 22.565 7.93909 22.921C7.84809 23.2322 7.65868 23.5056 7.39925 23.7001C7.13983 23.8946 6.82435 23.9999 6.50009 24Z" fill="#50B69A"/>
</g>
<defs>
<clipPath id="clip0_293_3076">
<rect width="24" height="24" fill="white"/>
</clipPath>
</defs>
</svg>
