<svg width="24" height="24" viewBox="0 0 24 24" fill="none" xmlns="http://www.w3.org/2000/svg">
<g clip-path="url(#clip0_293_3881)">
<path d="M18.5 24H13.034C11.1609 24.0327 9.3014 23.6752 7.57393 22.9503C5.84645 22.2253 4.28878 21.1487 3.00001 19.789C1.90952 18.5968 1.08326 17.1877 0.575396 15.6539C0.0675268 14.1202 -0.110492 12.4964 0.0530068 10.889C0.301095 8.27364 1.39891 5.8115 3.17859 3.87904C4.95827 1.94658 7.32188 0.65016 9.90801 0.188C11.607 -0.12713 13.3548 -0.0600867 15.0246 0.384266C16.6944 0.828619 18.2444 1.63913 19.562 2.757C20.9569 3.92961 22.0774 5.39418 22.8442 7.04728C23.6111 8.70039 24.0056 10.5017 24 12.324V18.5C23.9982 19.9581 23.4181 21.356 22.3871 22.387C21.356 23.4181 19.9581 23.9981 18.5 24ZM12.03 3C9.78451 2.99806 7.61901 3.83366 5.95684 5.34344C4.29467 6.85323 3.25533 8.92866 3.04201 11.164C2.91966 12.3564 3.05062 13.5612 3.42631 14.6994C3.80199 15.8377 4.41392 16.8837 5.22201 17.769C6.22914 18.8195 7.44365 19.6492 8.78848 20.2054C10.1333 20.7616 11.5791 21.0322 13.034 21H18.5C19.1631 21 19.7989 20.7366 20.2678 20.2678C20.7366 19.7989 21 19.163 21 18.5V12.324C21.0046 10.9398 20.7056 9.57145 20.124 8.31535C19.5425 7.05925 18.6925 5.94599 17.634 5.054C16.0694 3.72514 14.0827 2.99697 12.03 3ZM12 6C11.6022 6 11.2207 6.15803 10.9393 6.43934C10.658 6.72064 10.5 7.10217 10.5 7.5C10.5 7.89782 10.658 8.27936 10.9393 8.56066C11.2207 8.84196 11.6022 9 12 9C12.3978 9 12.7794 8.84196 13.0607 8.56066C13.342 8.27936 13.5 7.89782 13.5 7.5C13.5 7.10217 13.342 6.72064 13.0607 6.43934C12.7794 6.15803 12.3978 6 12 6ZM12.5 19C12.1022 19 11.7207 18.842 11.4393 18.5607C11.158 18.2794 11 17.8978 11 17.5V13H10.5C10.1022 13 9.72065 12.842 9.43935 12.5607C9.15804 12.2794 9.00001 11.8978 9.00001 11.5C9.00001 11.1022 9.15804 10.7206 9.43935 10.4393C9.72065 10.158 10.1022 10 10.5 10H11.5C12.163 10 12.7989 10.2634 13.2678 10.7322C13.7366 11.2011 14 11.837 14 12.5V17.5C14 17.8978 13.842 18.2794 13.5607 18.5607C13.2794 18.842 12.8978 19 12.5 19Z" fill="#2D4C31"/>
</g>
<defs>
<clipPath id="clip0_293_3881">
<rect width="24" height="24" fill="white"/>
</clipPath>
</defs>
</svg>
