<svg width="20" height="20" viewBox="0 0 20 20" fill="none" xmlns="http://www.w3.org/2000/svg">
<g clip-path="url(#clip0_293_2884)">
<path d="M20.0003 1.01323V5.10823C20.0003 5.75323 19.2203 6.07657 18.7636 5.62073L17.4561 4.31323L15.1794 6.5899C13.9328 7.83657 11.9028 7.8374 10.6544 6.5899L8.41194 4.34573C8.13861 4.07323 7.69611 4.07323 7.42194 4.34573L2.13361 9.63406C1.88944 9.87823 1.56944 9.9999 1.24944 9.9999C0.92944 9.9999 0.60944 9.87823 0.365273 9.63406C-0.12306 9.14657 -0.12306 8.3549 0.365273 7.86656L5.65444 2.5774C6.90111 1.33073 8.93111 1.3299 10.1794 2.5774L12.4219 4.82157C12.6953 5.09407 13.1378 5.09407 13.4119 4.82157L15.6886 2.5449L14.3811 1.2374C13.9244 0.780732 14.2478 0.000732422 14.8936 0.000732422H18.9886C19.5478 0.000732422 20.0019 0.454066 20.0019 1.01407L20.0003 1.01323ZM18.0711 13.5557L15.5378 13.1341C15.2261 13.0824 15.0003 12.8157 15.0003 12.4999C15.0003 12.0399 15.3736 11.6666 15.8336 11.6666H17.7236C18.0203 11.6666 18.2969 11.8257 18.4461 12.0841C18.6744 12.4824 19.1836 12.6199 19.5844 12.3874C19.9828 12.1574 20.1194 11.6474 19.8878 11.2491C19.4428 10.4791 18.6128 9.9999 17.7228 9.9999H17.4994V9.16656C17.4994 8.70656 17.1269 8.33323 16.6661 8.33323C16.2053 8.33323 15.8328 8.70656 15.8328 9.16656V9.9999C14.4544 9.9999 13.3328 11.1216 13.3328 12.4999C13.3328 13.6324 14.1444 14.5916 15.2619 14.7774L17.7953 15.1991C18.1069 15.2507 18.3328 15.5174 18.3328 15.8332C18.3328 16.2932 17.9594 16.6666 17.4994 16.6666H15.6094C15.3128 16.6666 15.0361 16.5074 14.8869 16.2491C14.6578 15.8499 14.1469 15.7116 13.7486 15.9457C13.3503 16.1757 13.2136 16.6857 13.4453 17.0841C13.8903 17.8549 14.7203 18.3332 15.6103 18.3332H15.8336V19.1666C15.8336 19.6274 16.2061 19.9999 16.6669 19.9999C17.1278 19.9999 17.5003 19.6274 17.5003 19.1666V18.3332C18.8786 18.3332 20.0003 17.2116 20.0003 15.8332C20.0003 14.7007 19.1886 13.7416 18.0711 13.5557ZM2.08361 11.6666C1.39361 11.6666 0.833607 12.2266 0.833607 12.9166V18.7499C0.833607 19.4399 1.39361 19.9999 2.08361 19.9999C2.77361 19.9999 3.33361 19.4399 3.33361 18.7499V12.9166C3.33361 12.2266 2.77361 11.6666 2.08361 11.6666ZM6.25027 8.33323C5.56027 8.33323 5.00027 8.8924 5.00027 9.58323V18.7499C5.00027 19.4399 5.56027 19.9999 6.25027 19.9999C6.94027 19.9999 7.50027 19.4399 7.50027 18.7499V9.58323C7.50027 8.8924 6.94027 8.33323 6.25027 8.33323ZM10.4169 9.16656C9.72694 9.16656 9.16694 9.72573 9.16694 10.4166V18.7499C9.16694 19.4399 9.72694 19.9999 10.4169 19.9999C11.1069 19.9999 11.6669 19.4399 11.6669 18.7499V10.4166C11.6669 9.72573 11.1069 9.16656 10.4169 9.16656Z" fill="#08120F"/>
</g>
<defs>
<clipPath id="clip0_293_2884">
<rect width="20" height="20" fill="white"/>
</clipPath>
</defs>
</svg>
