<svg width="24" height="24" viewBox="0 0 24 24" fill="none" xmlns="http://www.w3.org/2000/svg">
<path d="M1.50021 17C1.50021 15.895 2.39521 15 3.50021 15C4.60521 15 5.50021 15.895 5.50021 17C5.50021 18.105 4.60521 19 3.50021 19C2.39521 19 1.50021 18.105 1.50021 17ZM10.0002 17C10.0002 18.105 10.8952 19 12.0002 19C13.1052 19 14.0002 18.105 14.0002 17C14.0002 15.895 13.1052 15 12.0002 15C10.8952 15 10.0002 15.895 10.0002 17ZM12.0002 4C13.1052 4 14.0002 3.105 14.0002 2C14.0002 0.895 13.1052 0 12.0002 0C10.8952 0 10.0002 0.895 10.0002 2C10.0002 3.105 10.8952 4 12.0002 4ZM18.5002 17C18.5002 18.105 19.3952 19 20.5002 19C21.6052 19 22.5002 18.105 22.5002 17C22.5002 15.895 21.6052 15 20.5002 15C19.3952 15 18.5002 15.895 18.5002 17ZM3.50021 14C4.05221 14 4.50021 13.553 4.50021 13C4.50021 12.447 4.94921 12 5.50021 12H11.0002V13C11.0002 13.553 11.4482 14 12.0002 14C12.5522 14 13.0002 13.553 13.0002 13V12H18.5002C19.0512 12 19.5002 12.448 19.5002 13C19.5002 13.552 19.9482 14 20.5002 14C21.0522 14 21.5002 13.553 21.5002 13C21.5002 11.346 20.1542 10 18.5002 10H5.50021C3.84621 10 2.50021 11.346 2.50021 13C2.50021 13.553 2.94821 14 3.50021 14ZM12.0002 20C10.3432 20 8.90021 21.178 8.57021 22.801C8.46021 23.342 8.81021 23.87 9.35121 23.98C9.89621 24.092 10.4202 23.74 10.5302 23.2C10.6712 22.505 11.2892 22.001 12.0002 22.001C12.7112 22.001 13.3292 22.505 13.4702 23.2C13.5662 23.674 13.9832 24.001 14.4492 24.001C14.5152 24.001 14.5822 23.994 14.6492 23.98C15.1902 23.871 15.5402 23.342 15.4302 22.801C15.1002 21.178 13.6582 20 12.0002 20ZM9.35121 8.979C9.89621 9.088 10.4202 8.74 10.5302 8.199C10.6712 7.504 11.2892 7 12.0002 7C12.7112 7 13.3292 7.504 13.4702 8.199C13.5662 8.673 13.9832 9 14.4492 9C14.5152 9 14.5822 8.993 14.6492 8.979C15.1902 8.87 15.5402 8.341 15.4302 7.8C15.1002 6.177 13.6582 4.999 12.0002 4.999C10.3422 4.999 8.90021 6.177 8.57021 7.8C8.46021 8.341 8.81021 8.869 9.35121 8.979ZM3.45021 20C1.79221 20 0.349214 21.178 0.020214 22.801C-0.089786 23.343 0.260214 23.87 0.801214 23.981C1.34121 24.085 1.87021 23.74 1.98021 23.2C2.12121 22.505 2.73921 22.001 3.45021 22.001C4.16121 22.001 4.77921 22.505 4.92021 23.2C5.01621 23.674 5.43321 24.001 5.89921 24.001C5.96521 24.001 6.03221 23.994 6.09921 23.98C6.64021 23.871 6.99021 23.342 6.88021 22.801C6.55021 21.178 5.10821 20 3.45021 20ZM23.9792 22.797C23.6442 21.177 22.1802 20 20.5002 20C18.8202 20 17.3562 21.177 17.0212 22.797C16.9092 23.338 17.2562 23.867 17.7972 23.98C18.3352 24.085 18.8672 23.744 18.9792 23.204C19.1242 22.507 19.7632 22.001 20.5002 22.001C21.2372 22.001 21.8762 22.507 22.0212 23.204C22.1192 23.676 22.5352 24.001 22.9992 24.001C23.0662 24.001 23.1342 23.994 23.2032 23.98C23.7442 23.868 24.0922 23.338 23.9792 22.797Z" fill="#50B69A"/>
</svg>
