<svg width="24" height="24" viewBox="0 0 24 24" fill="none" xmlns="http://www.w3.org/2000/svg">
<path d="M23.2912 9.57313C22.9 9.18215 22.266 9.18215 21.875 9.57313L10.9659 20.5293C9.01024 22.4852 5.83931 22.4854 3.88335 20.5298C1.92739 18.5741 1.9272 15.4032 3.88283 13.4472L14.4484 2.83864C15.6311 1.6747 17.5336 1.68995 18.6975 2.87272C19.8481 4.04192 19.8483 5.91779 18.698 7.08727L8.1325 17.6958C7.73658 18.0751 7.11217 18.0751 6.7163 17.6958C6.32532 17.3047 6.32532 16.6707 6.7163 16.2796L16.123 6.8299C16.5073 6.43201 16.4963 5.79797 16.0984 5.4137C15.7103 5.03882 15.0949 5.03882 14.7068 5.4137L5.30011 14.8634C4.12659 16.0367 4.12645 17.9392 5.29973 19.1127C5.29987 19.1129 5.29997 19.113 5.30011 19.1131C6.48935 20.2479 8.36048 20.2479 9.54972 19.1131L20.1142 8.50356C22.0448 6.52314 22.0044 3.35263 20.024 1.42202C18.0789 -0.474174 14.9769 -0.473939 13.0322 1.42244L2.46664 12.031C-0.271432 14.769 -0.271432 19.2084 2.46664 21.9464C5.20471 24.6845 9.64404 24.6845 12.3821 21.9464L23.2912 10.9934C23.6833 10.6033 23.685 9.96914 23.295 9.57693C23.2937 9.57567 23.2924 9.5744 23.2912 9.57313Z" fill="#2D4C31"/>
</svg>
