<svg width="24" height="24" viewBox="0 0 24 24" fill="none" xmlns="http://www.w3.org/2000/svg">
<g clip-path="url(#clip0_293_3086)">
<path d="M6.202 18C5.049 18 3.898 17.647 2.924 16.954L0.849 15.478C0.401 15.16 0.099 14.666 0.021 14.125C-0.053 13.616 0.075 13.121 0.382 12.729C0.9 12.067 1.771 11.814 2.551 12.099L5.798 13.291L20.453 6.23002C21.705 5.65102 23.19 6.20002 23.768 7.45002C24.346 8.69802 23.806 10.195 22.565 10.788L8.616 17.455C7.851 17.82 7.027 18 6.202 18ZM24 23C24 22.447 23.552 22 23 22H1C0.448 22 0 22.447 0 23C0 23.553 0.448 24 1 24H23C23.552 24 24 23.553 24 23ZM8.614 9.71502L14.033 7.10402L8.184 3.49202C7.45 2.94702 6.477 2.84702 5.642 3.23202L4.861 3.59902C4.403 3.81402 4.087 4.24202 4.015 4.74302C3.943 5.24502 4.126 5.74402 4.505 6.08002L8.613 9.71602L8.614 9.71502Z" fill="#50B69A"/>
</g>
<defs>
<clipPath id="clip0_293_3086">
<rect width="24" height="24" fill="white"/>
</clipPath>
</defs>
</svg>
