<svg width="20" height="20" viewBox="0 0 20 20" fill="none" xmlns="http://www.w3.org/2000/svg">
<g clip-path="url(#clip0_293_2866)">
<path d="M9.99636 0C10.6863 0 11.2456 0.559329 11.2456 1.24929V5.41359C11.2456 6.10355 10.6863 6.66288 9.99636 6.66288C9.3064 6.66288 8.74707 6.10355 8.74707 5.41359V1.24929C8.74707 0.559329 9.30636 0 9.99636 0Z" fill="#08120F"/>
<path d="M12.9113 4.11433C12.9052 4.5337 13.1166 4.92637 13.4701 5.15206C16.6102 7.07062 17.6004 11.1715 15.6819 14.3115C13.7633 17.4516 9.66247 18.4418 6.52239 16.5233C3.38231 14.6047 2.39209 10.5039 4.31068 7.36377C4.85889 6.46655 5.61166 5.71178 6.50744 5.1612C6.86704 4.93551 7.08418 4.53968 7.08129 4.11511C7.0832 3.42516 6.52543 2.8643 5.83548 2.86239C5.5985 2.86173 5.36621 2.92849 5.16574 3.0549C0.867607 5.72463 -0.452461 11.3731 2.21723 15.6712C4.88692 19.9693 10.5354 21.2894 14.8335 18.6197C19.1316 15.95 20.4517 10.3015 17.782 6.00341C17.0389 4.80702 16.0299 3.79807 14.8335 3.05494C14.248 2.68558 13.474 2.86079 13.1046 3.44628C12.9784 3.64624 12.9114 3.87787 12.9113 4.11433Z" fill="#08120F"/>
</g>
<defs>
<clipPath id="clip0_293_2866">
<rect width="20" height="20" fill="white"/>
</clipPath>
</defs>
</svg>
