<svg width="20" height="20" viewBox="0 0 20 20" fill="none" xmlns="http://www.w3.org/2000/svg">
<g clip-path="url(#clip0_293_1903)">
<path d="M0.489422 15.2C0.240419 15.7082 0.124899 16.2714 0.153749 16.8366C0.182598 17.4017 0.354867 17.9503 0.654323 18.4305C0.953779 18.9107 1.37056 19.3067 1.8654 19.5813C2.36024 19.8559 2.91684 20 3.48276 20H16.5169C17.0829 20.0001 17.6396 19.8561 18.1346 19.5816C18.6295 19.3071 19.0464 18.911 19.346 18.4308C19.6455 17.9506 19.8179 17.402 19.8468 16.8368C19.8756 16.2715 19.7601 15.7082 19.5111 15.2L19.0053 14.1666H0.995255L0.489422 15.2Z" fill="#08120F"/>
<path d="M16.1474 8.33334H3.85236L1.81152 12.5H18.1882L16.1474 8.33334Z" fill="#08120F"/>
<path d="M12.9945 1.89585C12.7202 1.33564 12.2942 0.863622 11.765 0.533482C11.2358 0.203341 10.6245 0.0283203 10.0007 0.0283203C9.37698 0.0283203 8.76573 0.203341 8.2365 0.533482C7.70727 0.863622 7.28129 1.33564 7.00699 1.89585L4.66699 6.66669H15.3337L12.9945 1.89585Z" fill="#08120F"/>
</g>
<defs>
<clipPath id="clip0_293_1903">
<rect width="20" height="20" fill="white"/>
</clipPath>
</defs>
</svg>
