<svg width="24" height="24" viewBox="0 0 24 24" fill="none" xmlns="http://www.w3.org/2000/svg">
<g clip-path="url(#clip0_293_3099)">
<path d="M6.5 0C2.91 0 0 2.91 0 6.5C0 10.09 2.91 13 6.5 13C10.09 13 13 10.09 13 6.5C13 2.91 10.09 0 6.5 0ZM7.815 11H7.5C7.5 11.552 7.052 12 6.5 12C5.948 12 5.5 11.552 5.5 11C4.387 11 3.413 10.39 2.895 9.487C2.515 8.825 3.005 8 3.769 8C4.128 8 4.455 8.196 4.638 8.506C4.812 8.802 5.133 9 5.5 9H7.85C8.184 9 8.479 8.749 8.499 8.415C8.519 8.091 8.293 7.813 7.979 7.76L4.693 7.212C3.416 6.999 2.49 5.9 2.501 4.602C2.512 3.151 3.735 1.999 5.186 1.999H5.501C5.501 1.447 5.949 0.999 6.501 0.999C7.053 0.999 7.501 1.447 7.501 1.999C8.614 1.999 9.588 2.609 10.106 3.512C10.486 4.174 9.996 4.999 9.232 4.999C8.873 4.999 8.546 4.803 8.363 4.493C8.189 4.198 7.868 3.999 7.501 3.999H5.125C4.765 3.999 4.476 4.304 4.503 4.669C4.524 4.961 4.758 5.194 5.047 5.243L8.308 5.787C9.585 6 10.511 7.099 10.501 8.397C10.49 9.848 9.266 11 7.815 11ZM22.996 13.62L17.996 16.477L12.996 13.62L16.507 11.613C17.429 11.086 18.562 11.086 19.484 11.613L22.996 13.62ZM12 15.423L17 18.28V24L13.511 22.006C12.576 21.472 12 20.478 12 19.401V15.422V15.423ZM19 18.28L24 15.423V19.402C24 20.479 23.423 21.472 22.489 22.007L19 24.001V18.28ZM9.677 18.787C10.052 19.162 10.052 19.77 9.677 20.145L6.639 23.183C6.034 23.788 5 23.359 5 22.504V21H4.5C2.019 21 0 18.981 0 16.5C0 15.672 0.671 15 1.5 15C2.329 15 3 15.672 3 16.5C3 17.328 3.673 18 4.5 18H5V16.429C5 15.574 6.034 15.145 6.639 15.75L9.677 18.787ZM14.323 5.212C13.948 4.837 13.948 4.229 14.323 3.854L17.361 0.816C17.966 0.211 19 0.639 19 1.495V2.999H19.5C21.981 2.999 24 5.018 24 7.499C24 8.327 23.329 8.999 22.5 8.999C21.671 8.999 21 8.327 21 7.499C21 6.671 20.327 5.999 19.5 5.999H19V7.57C19 8.426 17.966 8.854 17.361 8.249L14.323 5.212Z" fill="#50B69A"/>
</g>
<defs>
<clipPath id="clip0_293_3099">
<rect width="24" height="24" fill="white"/>
</clipPath>
</defs>
</svg>
