<svg width="24" height="24" viewBox="0 0 24 24" fill="none" xmlns="http://www.w3.org/2000/svg">
<path d="M19 20.3809C19 21.3599 18.697 22.1579 18.099 22.7549C16.928 23.9219 14.93 24.0009 12.93 24.0009C12.499 24.0009 11.971 23.9979 11.538 24.0009C9.382 24.0079 7.163 24.0139 5.902 22.7559C5.304 22.1589 5.001 21.3609 5.001 20.3819C5.001 17.6639 8.061 12.7539 11.18 11.3789C10.576 10.8199 10.023 9.94494 9.506 8.98094C9.244 8.49194 9.524 7.88494 10.066 7.76494L12.76 7.16594C13.199 7.06794 13.64 7.33494 13.759 7.76894C14.129 9.12294 14.036 10.3949 13.629 11.1849C16.381 12.2199 19.001 17.7829 19.001 20.3829L19 20.3809ZM10.922 3.24094C11.224 3.48694 11.443 3.83994 11.522 4.20894C11.623 4.67894 12.037 4.99994 12.499 4.99994C12.568 4.99994 12.639 4.99294 12.709 4.97794C13.249 4.86294 13.593 4.33094 13.478 3.79094C13.303 2.97194 12.844 2.22594 12.185 1.68994C11.868 1.43194 11.661 1.11794 11.585 0.779943C11.464 0.240943 10.929 -0.0990569 10.39 0.0239431C9.851 0.144943 9.513 0.679943 9.634 1.21894C9.809 1.99694 10.255 2.69694 10.923 3.23994L10.922 3.24094ZM6 4.99994C6 5.55194 6.448 5.99994 7 5.99994C7.552 5.99994 8 5.55194 8 4.99994C8 3.93794 7.488 2.88794 6.631 2.18894C6.224 1.85694 6 1.43494 6 0.999943C6 0.447943 5.552 -5.6906e-05 5 -5.6906e-05C4.448 -5.6906e-05 4 0.447943 4 0.999943C4 2.03394 4.499 3.03194 5.369 3.73994C5.758 4.05694 6 4.53994 6 4.99994ZM17 4.99994C17 5.55194 17.448 5.99994 18 5.99994C18.552 5.99994 19 5.55194 19 4.99994C19 3.93794 18.488 2.88794 17.631 2.18894C17.224 1.85694 17 1.43494 17 0.999943C17 0.447943 16.552 -5.6906e-05 16 -5.6906e-05C15.448 -5.6906e-05 15 0.447943 15 0.999943C15 2.03394 15.499 3.03194 16.369 3.73994C16.758 4.05694 17 4.53994 17 4.99994ZM6.668 12.4449C6.894 11.8009 7.034 10.8729 7.054 10.0469C7.067 9.48894 6.574 9.05694 6.022 9.13494C5.522 9.20594 4.918 9.29294 4.426 9.36294C3.908 9.43694 3.547 9.93694 3.67 10.4459C3.83 11.1069 4.076 11.7349 4.395 12.2039C4.395 12.2059 4.395 12.2059 4.393 12.2079C4.394 12.2099 4.395 12.2109 4.396 12.2129C1.74 13.2099 0 18.0669 0 20.7799C0 22.3099 0.747 23.4029 2.161 23.9399C2.274 23.9599 2.388 23.9799 2.5 23.9999H4.35C3.475 23.0459 3 21.8069 3 20.3809C3 18.1259 4.506 14.8919 6.668 12.4449ZM19.902 12.3429C20.268 11.9759 20.613 11.4959 20.906 10.9859C21.19 10.4919 20.96 9.86094 20.422 9.67494L19.078 9.20894C18.385 8.96894 17.842 9.27494 17.717 9.79994C17.641 10.1189 17.586 10.4839 17.551 10.9339C17.507 11.4949 17.692 12.0419 18.01 12.5049C19.853 15.1049 21 18.5099 21 20.3799C21 21.8059 20.525 23.0459 19.65 23.9989H21.384C21.493 23.9989 21.604 23.9809 21.713 23.9429C23.21 23.4219 24.001 22.3139 24.001 20.7369C24.001 17.8809 22.344 13.5129 19.903 12.3419L19.902 12.3429Z" fill="#50B69A"/>
</svg>
